<?xml version="1.0" standalone="no"?>
<!DOCTYPE svg PUBLIC "-//W3C//DTD SVG 20010904//EN"
 "http://www.w3.org/TR/2001/REC-SVG-20010904/DTD/svg10.dtd">
<svg version="1.0" xmlns="http://www.w3.org/2000/svg"
 width="251.000000pt" height="254.000000pt" viewBox="0 0 251.000000 254.000000"
 preserveAspectRatio="xMidYMid meet">

<g transform="translate(0.000000,254.000000) scale(0.100000,-0.100000)"
fill="#000000" stroke="none">
<path d="M1125 2274 c-77 -40 -122 -118 -112 -199 6 -57 12 -63 37 -40 13 12
20 31 20 57 0 76 49 132 126 144 61 9 112 -15 148 -69 34 -53 32 -110 -8 -162
-52 -68 -111 -81 -189 -41 -26 12 -49 21 -52 18 -11 -12 -4 -60 10 -66 10 -3
15 -19 15 -46 l0 -40 -127 0 c-97 1 -133 4 -147 15 -49 37 -126 0 -126 -61 0
-48 14 -70 51 -83 25 -9 38 -8 62 4 22 11 64 15 157 15 70 0 129 -2 131 -4 2
-2 3 -41 1 -85 l-4 -81 -239 0 c-153 0 -239 -4 -239 -10 0 -7 205 -10 595 -10
390 0 595 3 595 10 0 6 -75 10 -205 10 -170 0 -205 2 -205 14 0 8 -11 37 -25
65 -26 51 -58 80 -70 61 -7 -12 21 -80 33 -80 6 0 12 -13 14 -30 4 -28 3 -30
-29 -30 l-34 0 3 86 3 87 133 0 c87 0 137 -4 145 -12 18 -18 72 -13 101 10 34
27 37 96 6 124 -26 24 -83 24 -108 2 -17 -15 -38 -17 -153 -15 l-134 3 2 35
c1 19 7 36 15 39 7 2 29 20 49 40 65 64 71 170 17 260 -42 68 -188 104 -263
65z m-314 -464 c25 -14 24 -46 -2 -60 -37 -20 -67 28 -37 58 15 15 15 15 39 2z
m859 -5 c25 -30 -16 -79 -46 -54 -17 14 -18 56 -1 62 22 9 34 7 47 -8z"/>
<path d="M1140 2083 c-30 -6 -75 -47 -96 -88 -17 -35 -11 -100 14 -127 16 -19
52 -24 52 -8 0 6 -4 10 -8 10 -11 0 -32 61 -32 92 0 14 7 28 15 32 8 3 15 11
15 18 0 7 12 19 27 25 36 17 87 -11 91 -50 3 -21 9 -27 28 -27 26 0 30 13 15
54 -9 22 -77 78 -91 75 -3 -1 -16 -4 -30 -6z"/>
<path d="M1050 1682 c0 -10 -4 -22 -9 -27 -5 -6 -12 -25 -16 -42 -6 -31 -5
-33 19 -33 19 0 26 5 26 19 0 10 7 37 15 60 14 41 14 41 -10 41 -17 0 -25 -6
-25 -18z"/>
<path d="M586 1432 c-7 -11 47 -145 61 -149 6 -2 19 21 30 53 l19 58 20 -54
c10 -29 24 -55 30 -57 12 -4 70 144 61 153 -12 12 -26 -8 -43 -59 l-17 -52
-19 58 c-11 31 -25 57 -32 57 -7 0 -21 -26 -31 -57 l-18 -58 -19 58 c-18 53
-30 68 -42 49z"/>
<path d="M850 1366 l0 -74 30 -7 c36 -8 93 3 84 16 -3 5 -23 9 -45 9 -32 0
-39 3 -39 20 0 16 7 20 34 20 19 0 38 5 41 10 3 6 -5 10 -19 10 -13 0 -31 3
-40 6 -24 9 -19 34 7 34 35 0 67 11 61 21 -3 5 -30 9 -60 9 l-54 0 0 -74z"/>
<path d="M1010 1366 l0 -75 33 -6 c41 -7 70 -2 75 13 2 8 -10 12 -37 12 l-40
0 -3 62 c-2 38 -8 63 -15 66 -10 3 -13 -16 -13 -72z"/>
<path d="M1161 1414 c-51 -65 10 -155 87 -128 14 5 27 15 30 22 3 9 -6 11 -39
6 -34 -6 -44 -4 -56 11 -19 27 -16 59 8 80 17 16 25 17 49 8 20 -8 32 -8 36
-1 10 15 -16 28 -58 28 -28 0 -42 -6 -57 -26z"/>
<path d="M1331 1414 c-25 -31 -26 -55 -6 -93 24 -46 74 -55 119 -20 33 26 37
88 6 119 -31 31 -93 27 -119 -6z m107 -27 c19 -39 -5 -77 -48 -77 -47 0 -67
55 -33 92 24 27 65 20 81 -15z"/>
<path d="M1520 1365 c0 -60 3 -75 15 -75 11 0 15 12 15 48 l1 47 17 -27 c9
-16 22 -28 29 -28 7 0 19 12 27 28 17 31 18 30 21 -22 1 -22 7 -42 13 -44 9
-3 12 19 12 72 0 44 -4 76 -10 76 -5 0 -20 -16 -32 -35 -13 -19 -26 -35 -30
-35 -4 0 -18 16 -30 35 -36 55 -48 46 -48 -40z"/>
<path d="M1728 1369 c-2 -38 1 -74 7 -80 10 -10 65 -12 89 -3 31 12 16 24 -29
24 -38 0 -45 3 -45 20 0 17 7 20 40 20 51 0 53 18 3 22 -30 2 -38 7 -38 22 0
16 8 20 39 20 22 1 41 7 44 14 2 8 -12 12 -51 12 l-55 0 -4 -71z"/>
<path d="M269 1169 c-53 -75 -81 -253 -59 -375 12 -70 66 -204 81 -204 5 0 9
10 9 23 0 22 35 107 44 107 2 0 19 -26 37 -57 17 -32 63 -89 100 -126 60 -60
85 -76 206 -133 344 -162 363 -173 446 -256 43 -43 84 -78 91 -78 8 0 33 26
57 57 55 70 177 153 308 207 l94 39 -6 67 c-8 94 -61 190 -104 190 -40 0 -89
29 -117 68 -24 36 -76 175 -76 206 0 14 27 16 225 16 143 0 225 4 225 10 0 7
-205 10 -595 10 -390 0 -595 -3 -595 -10 0 -6 64 -10 173 -10 l172 0 18 -32
c19 -33 37 -29 40 11 1 11 7 21 15 21 8 0 11 -7 9 -17 -45 -163 -52 -178 -97
-224 -40 -42 -51 -48 -102 -54 -91 -11 -227 15 -298 58 -49 30 -121 98 -114
108 3 5 30 9 60 9 30 0 54 2 54 5 0 3 -26 31 -59 64 -72 72 -132 160 -178 257
-18 41 -35 74 -38 74 -2 0 -14 -14 -26 -31z"/>
<path d="M720 1134 c-30 -67 -37 -94 -22 -94 4 0 12 8 18 18 15 23 73 21 91
-3 8 -12 16 -15 22 -9 11 11 -53 154 -68 154 -6 0 -24 -30 -41 -66z m58 -9
c11 -23 10 -25 -13 -25 -26 0 -29 7 -19 34 9 23 19 20 32 -9z"/>
<path d="M1079 1187 c-42 -32 -49 -81 -18 -121 26 -33 88 -37 119 -6 31 31 27
93 -6 119 -30 23 -71 27 -95 8z m87 -42 c34 -52 -31 -111 -76 -70 -38 34 -18
95 30 95 21 0 35 -8 46 -25z"/>
<path d="M1270 1134 c-30 -67 -37 -94 -22 -94 4 0 12 8 18 18 15 23 73 21 91
-3 8 -12 16 -15 22 -9 11 11 -53 154 -68 154 -6 0 -24 -30 -41 -66z m58 -9
c11 -23 10 -25 -13 -25 -26 0 -29 7 -19 34 9 23 19 20 32 -9z"/>
<path d="M1432 1188 c-10 -10 -2 -148 8 -148 5 0 10 12 12 27 4 38 22 39 54 4
15 -17 31 -31 36 -31 14 0 9 27 -7 40 -14 12 -14 15 0 30 18 20 20 54 3 68
-16 12 -96 20 -106 10z m83 -43 c0 -15 -8 -21 -32 -23 -30 -3 -33 -1 -33 23 0
24 3 26 33 23 24 -2 32 -8 32 -23z"/>
<path d="M2133 1189 c-6 -8 -23 -39 -38 -69 -45 -90 -108 -182 -173 -251 l-60
-65 64 4 c77 5 82 -6 29 -61 -39 -40 -136 -90 -210 -109 -62 -15 -61 -14 -43
-35 15 -18 42 -99 54 -160 4 -18 8 -33 11 -33 2 0 26 11 52 25 95 48 189 147
267 281 10 18 12 17 24 -6 7 -14 19 -47 25 -75 l12 -50 30 65 c46 97 67 206
59 299 -12 133 -73 276 -103 240z"/>
<path d="M880 1115 l0 -75 46 0 c25 0 54 5 65 10 21 12 26 45 8 56 -6 3 -8 17
-4 31 9 37 -11 53 -66 53 l-49 0 0 -75z m85 35 c0 -9 -11 -16 -27 -18 -23 -3
-28 1 -28 18 0 17 5 21 28 18 16 -2 27 -9 27 -18z m-1 -46 c23 -9 20 -31 -5
-37 -29 -8 -49 2 -49 24 0 19 23 25 54 13z"/>
<path d="M1600 1115 l0 -75 45 0 c35 0 52 6 70 25 55 54 16 125 -68 125 l-47
0 0 -75z m94 39 c19 -18 21 -55 4 -72 -7 -7 -25 -12 -40 -12 -27 0 -28 2 -28
50 0 46 2 50 24 50 14 0 32 -7 40 -16z"/>
<path d="M1440 761 c0 -19 37 -50 80 -66 57 -21 87 -47 126 -110 41 -67 46
-90 48 -231 1 -103 -2 -125 -16 -141 -10 -11 -18 -32 -18 -46 0 -15 -3 -27 -7
-27 -5 0 -16 -14 -26 -32 -18 -32 -18 -32 5 -50 30 -23 38 -22 38 2 0 12 8 37
18 58 35 70 47 134 47 252 0 116 -16 189 -52 231 -7 8 -13 19 -13 23 0 13 -63
76 -76 76 -6 0 -17 7 -24 16 -22 26 -130 64 -130 45z"/>
</g>
</svg>
