<?xml version="1.0" standalone="no"?>
<!DOCTYPE svg PUBLIC "-//W3C//DTD SVG 20010904//EN"
 "http://www.w3.org/TR/2001/REC-SVG-20010904/DTD/svg10.dtd">
<svg version="1.0" xmlns="http://www.w3.org/2000/svg"
 width="80.000000pt" height="80.000000pt" viewBox="0 0 80.000000 80.000000"
 preserveAspectRatio="xMidYMid meet">

<g transform="translate(0.000000,80.000000) scale(0.100000,-0.100000)"
fill="#000000" stroke="none">
<path d="M372 744 c-12 -8 -22 -21 -22 -29 0 -9 -18 -16 -57 -20 -151 -16
-255 -117 -270 -261 -9 -88 62 -262 115 -278 15 -5 17 -17 16 -83 -2 -77 -2
-77 4 -16 4 34 10 64 13 67 3 3 19 0 35 -8 46 -23 196 -31 225 -13 13 8 39 17
58 21 48 9 98 50 122 101 18 38 20 59 17 142 -3 112 -21 158 -88 232 -33 37
-40 51 -40 86 0 28 -6 47 -18 58 -23 21 -81 22 -110 1z m91 -20 c9 -10 -4 -34
-19 -34 -8 0 -14 9 -14 20 0 19 19 27 33 14z m-53 -49 c0 -8 -4 -15 -10 -15
-5 0 -10 7 -10 15 0 8 5 15 10 15 6 0 10 -7 10 -15z m-27 -30 c28 -28 31 -35
17 -35 -11 0 -31 -11 -46 -23 -24 -21 -27 -31 -27 -84 1 -51 7 -72 44 -142 24
-45 57 -96 73 -114 15 -18 24 -25 18 -17 -15 23 -51 89 -85 155 -37 72 -47
150 -22 180 16 20 16 20 6 -2 -6 -12 -11 -32 -11 -45 1 -19 2 -20 10 -7 5 9
11 30 12 48 2 26 5 30 23 25 43 -14 49 -14 20 0 l-30 15 31 1 c59 0 127 -75
169 -187 8 -24 14 -30 14 -18 1 29 -52 135 -87 172 -16 17 -27 35 -24 38 4 3
-1 3 -11 -1 -9 -3 -17 -2 -17 4 0 24 34 22 61 -4 71 -68 124 -237 88 -281 -9
-11 -10 -14 -2 -9 19 11 4 -53 -20 -87 -16 -23 -25 -27 -46 -23 l-26 6 22 -19
23 -19 -45 -21 c-25 -12 -51 -21 -58 -21 -8 0 -28 -7 -45 -15 -49 -25 -179 0
-253 47 -52 33 -57 40 -87 120 -38 99 -41 165 -13 229 l20 43 7 -29 c18 -72
82 -116 136 -94 37 15 48 37 48 94 0 38 -5 52 -28 73 -15 15 -36 32 -46 37
-17 10 -16 13 15 28 19 9 57 17 86 17 45 0 55 -4 86 -35z m67 15 c0 -5 -5 -10
-11 -10 -5 0 -7 5 -4 10 3 6 8 10 11 10 2 0 4 -4 4 -10z m-230 -65 c20 -24 4
-65 -25 -65 -33 0 -47 47 -20 67 24 17 30 16 45 -2z m-50 -85 c0 -13 -7 -20
-20 -20 -13 0 -20 7 -20 20 0 13 7 20 20 20 13 0 20 -7 20 -20z m35 -40 c-5
-8 -11 -8 -17 -2 -6 6 -7 16 -3 22 5 8 11 8 17 2 6 -6 7 -16 3 -22z"/>
<path d="M350 635 c0 -8 4 -15 10 -15 5 0 7 7 4 15 -4 8 -8 15 -10 15 -2 0 -4
-7 -4 -15z"/>
<path d="M71 502 c-1 -25 48 -82 71 -82 7 0 0 8 -16 18 -16 10 -35 33 -42 52
-10 29 -13 31 -13 12z"/>
<path d="M281 434 c0 -11 3 -14 6 -6 3 7 2 16 -1 19 -3 4 -6 -2 -5 -13z"/>
<path d="M261 428 c-1 -9 -11 -24 -23 -32 -14 -10 -17 -16 -8 -16 22 0 -1 -18
-30 -23 -25 -4 -25 -4 2 -6 15 0 38 9 53 22 22 19 25 26 16 47 -6 16 -10 19
-10 8z m4 -37 c-3 -6 -11 -11 -16 -11 -5 0 -4 6 3 14 14 16 24 13 13 -3z"/>
<path d="M480 192 c0 -6 -10 -12 -22 -14 -14 -2 -19 -6 -12 -10 13 -9 52 17
41 28 -4 4 -7 2 -7 -4z"/>
</g>
</svg>
