<?xml version="1.0" standalone="no"?>
<!DOCTYPE svg PUBLIC "-//W3C//DTD SVG 20010904//EN"
 "http://www.w3.org/TR/2001/REC-SVG-20010904/DTD/svg10.dtd">
<svg version="1.0" xmlns="http://www.w3.org/2000/svg"
 width="128.000000pt" height="80.000000pt" viewBox="0 0 128.000000 80.000000"
 preserveAspectRatio="xMidYMid meet">

<g transform="translate(0.000000,80.000000) scale(0.100000,-0.100000)"
fill="#000000" stroke="none">
<path d="M565 784 c-125 -27 -167 -49 -254 -137 -35 -36 -70 -63 -77 -60 -13
5 -34 -51 -34 -92 0 -16 -2 -17 -10 -5 -16 25 -20 6 -22 -106 -2 -121 16 -207
52 -239 11 -10 20 -29 20 -42 0 -28 22 -74 45 -93 26 -22 26 -6 0 30 -40 55
-30 60 41 23 36 -19 68 -32 71 -29 3 3 -15 15 -41 27 -58 25 -99 80 -127 168
-29 97 -35 168 -15 215 9 21 16 51 16 66 0 35 32 75 87 110 24 16 38 30 31 32
-16 6 89 84 122 91 14 3 52 13 85 21 111 29 209 16 266 -36 l34 -29 -82 6
c-68 4 -83 3 -83 -9 0 -16 21 -26 53 -26 17 0 13 -6 -21 -26 -44 -26 -72 -67
-72 -105 0 -34 61 -87 108 -95 23 -4 40 -10 37 -14 -2 -3 -35 -19 -72 -35 -37
-16 -82 -40 -100 -53 -22 -16 -54 -26 -99 -32 -36 -5 -70 -12 -76 -18 -5 -5
-11 -25 -15 -45 -5 -33 -1 -41 47 -96 48 -55 57 -61 91 -61 21 0 64 -10 96
-22 75 -28 130 -28 177 1 47 29 62 60 69 141 4 46 15 83 40 131 l34 67 -37 11
c-21 6 -50 12 -66 12 -23 1 -24 3 -7 6 20 4 54 33 38 33 -4 0 -2 6 4 14 20 23
1 67 -52 123 -48 51 -49 53 -23 53 14 0 26 -4 26 -10 0 -5 9 -10 19 -10 20 0
35 -25 25 -42 -3 -5 1 -17 9 -26 9 -9 29 -47 46 -85 17 -37 35 -67 41 -67 5 0
10 -5 10 -11 0 -5 -4 -8 -9 -5 -5 3 -5 -12 1 -36 5 -23 7 -52 4 -65 -4 -12 -1
-45 5 -72 10 -50 10 -52 -36 -137 -26 -47 -44 -88 -41 -91 10 -11 40 32 81
116 33 69 38 85 27 101 -7 12 -12 59 -12 121 0 110 -4 122 -62 188 -21 24 -38
54 -38 66 0 45 -109 160 -175 185 -25 10 -159 12 -200 4z m229 -180 c18 -17
21 -44 7 -44 -11 0 -41 39 -41 52 0 13 18 9 34 -8z m-36 -16 c30 -30 0 -68
-39 -48 -19 10 -26 40 -12 53 10 11 38 8 51 -5z m148 -50 c13 -26 14 -32 1
-46 -8 -10 -13 -22 -10 -28 6 -17 -116 -16 -152 1 l-30 13 30 1 c39 1 92 34
113 70 19 33 26 32 48 -11z m-23 -124 c30 -5 35 -9 26 -20 -15 -19 -38 -18
-60 2 -17 15 -20 14 -39 -19 -27 -46 -43 -51 -76 -25 l-27 22 49 22 c54 24 71
27 127 18z m46 -87 c-21 -46 -32 -85 -34 -127 -3 -68 -9 -80 -28 -60 -9 10 -9
11 1 6 6 -4 12 -2 12 3 0 6 -5 11 -11 11 -8 0 -8 5 1 15 8 9 9 15 2 15 -6 0
-14 -4 -17 -10 -3 -5 -19 -10 -36 -10 -24 0 -29 -4 -29 -25 0 -23 -2 -24 -21
-15 -17 10 -21 8 -26 -9 -4 -16 -11 -19 -28 -15 -13 3 -26 1 -29 -5 -5 -7 2
-11 18 -11 14 0 28 -4 31 -10 11 -18 -34 -10 -110 20 -83 33 -89 35 -80 20 3
-5 3 -10 -2 -10 -30 1 -93 91 -93 133 0 37 12 47 57 47 22 0 24 -3 18 -27 -9
-37 -9 -37 -39 -18 -16 11 -26 13 -26 6 0 -21 49 -36 71 -23 10 7 28 12 38 12
11 0 26 9 34 20 11 16 21 19 40 15 28 -7 67 22 67 50 0 13 4 14 21 5 30 -17
67 -4 88 30 16 28 19 28 39 14 23 -16 47 -9 72 21 29 35 29 -5 -1 -68z m-241
2 c-12 -34 -34 -47 -51 -30 -17 17 -25 14 -42 -19 -10 -19 -20 -27 -30 -24
-22 9 -19 44 3 44 10 0 38 13 62 29 60 39 72 39 58 0z m150 -185 c25 -17 29
-49 7 -58 -17 -6 -45 29 -45 56 0 22 9 23 38 2z m-39 -48 c19 -21 20 -24 6
-30 -34 -13 -45 -6 -45 24 0 36 9 38 39 6z"/>
<path d="M336 602 c-8 -16 -34 -41 -57 -56 -30 -20 -38 -30 -29 -36 7 -5 23
-5 35 0 20 8 21 6 17 -44 -3 -39 0 -55 12 -65 9 -8 16 -20 16 -27 0 -17 12
-18 28 -2 9 9 15 9 25 -1 10 -10 8 -11 -8 -5 -15 5 -17 4 -9 -5 15 -16 70 -10
66 7 -1 8 2 11 9 7 22 -14 113 94 107 127 -7 33 -51 52 -119 53 l-68 0 20 21
c27 29 25 54 -6 54 -17 0 -29 -9 -39 -28z m72 -94 c3 -24 0 -28 -22 -28 -16 0
-27 7 -31 20 -9 27 2 42 28 38 16 -2 23 -11 25 -30z m40 3 c3 -16 -1 -22 -10
-19 -7 3 -15 15 -16 27 -3 16 1 22 10 19 7 -3 15 -15 16 -27z m77 -1 c15 -24
-60 -130 -82 -117 -4 3 -30 1 -56 -3 -45 -7 -49 -5 -58 17 -5 13 -9 25 -9 26
0 1 24 1 53 -1 46 -3 58 0 85 23 18 15 32 35 32 46 0 20 24 26 35 9z"/>
<path d="M890 621 c0 -5 5 -13 10 -16 6 -3 10 -2 10 4 0 5 -4 13 -10 16 -5 3
-10 2 -10 -4z"/>
<path d="M350 336 c0 -16 6 -26 14 -26 9 0 12 7 9 20 -8 31 -23 34 -23 6z"/>
</g>
</svg>
